<?xml version="1.0" encoding="utf-8"?>
<!-- Generator: Adobe Illustrator 24.3.0, SVG Export Plug-In . SVG Version: 6.00 Build 0)  -->
<svg version="1.1" id="Layer_1" xmlns="http://www.w3.org/2000/svg" xmlns:xlink="http://www.w3.org/1999/xlink" x="0px" y="0px"
	 viewBox="0 0 425 425" enable-background="new 0 0 425 425" xml:space="preserve">
<g>
	<linearGradient id="SVGID_1_" gradientUnits="userSpaceOnUse" x1="-724.2706" y1="715.318" x2="1283.7351" y2="-376.6833">
		<stop  offset="0" style="stop-color:#00C9FF"/>
		<stop  offset="1" style="stop-color:#3B72DE"/>
	</linearGradient>
	<path fill="url(#SVGID_1_)" d="M283.378,121.873c-18.933-18.932-44.104-29.358-70.878-29.358c-0.002,0,0.002,0,0,0
		c-26.773,0-51.947,10.427-70.878,29.358c-18.933,18.932-29.359,44.105-29.359,70.878c0,26.773,10.427,51.946,29.359,70.878
		l3.563,3.562c1.905,1.907,4.995,1.907,6.902,0c1.905-1.905,1.905-4.995,0-6.902l-3.564-3.562
		c-35.274-35.276-35.274-92.675,0-127.95c35.276-35.276,92.675-35.276,127.951,0c35.276,35.275,35.276,92.674,0,127.95
		L212.5,320.701l-24.586-24.586c-1.905-1.904-4.995-1.904-6.902,0c-1.905,1.907-1.905,4.998,0,6.903l28.037,28.037
		c0.952,0.953,2.202,1.43,3.451,1.43s2.499-0.477,3.451-1.43l67.429-67.427c18.931-18.932,29.357-44.104,29.357-70.878
		C312.737,165.978,302.31,140.806,283.378,121.873z"/>
	<linearGradient id="SVGID_2_" gradientUnits="userSpaceOnUse" x1="-702.955" y1="754.5135" x2="1305.0508" y2="-337.4878">
		<stop  offset="0" style="stop-color:#00C9FF"/>
		<stop  offset="1" style="stop-color:#3B72DE"/>
	</linearGradient>
	<path fill="url(#SVGID_2_)" d="M163.119,271.32c-1.907-1.906-4.998-1.906-6.903,0c-1.906,1.905-1.906,4.997,0,6.902l13.769,13.768
		c0.952,0.954,2.201,1.43,3.451,1.43c1.248,0,2.498-0.476,3.451-1.43c1.905-1.905,1.905-4.995,0-6.902L163.119,271.32z"/>
	<linearGradient id="SVGID_3_" gradientUnits="userSpaceOnUse" x1="-734.3547" y1="696.7834" x2="1273.6561" y2="-395.2206">
		<stop  offset="0" style="stop-color:#00C9FF"/>
		<stop  offset="1" style="stop-color:#3B72DE"/>
	</linearGradient>
	<path fill="url(#SVGID_3_)" d="M234.774,170.477c2.097,2.096,3.878,4.458,5.299,7.021c0.892,1.608,2.557,2.517,4.275,2.517
		c0.801,0,1.611-0.197,2.361-0.612c2.357-1.307,3.21-4.276,1.904-6.635c-1.862-3.36-4.195-6.454-6.936-9.193
		c-2.519-2.52-5.342-4.7-8.394-6.48c-2.329-1.359-5.318-0.573-6.677,1.755c-1.359,2.328-0.573,5.316,1.755,6.676
		C230.691,166.883,232.849,168.55,234.774,170.477z"/>
	<linearGradient id="SVGID_4_" gradientUnits="userSpaceOnUse" x1="-729.7733" y1="705.1815" x2="1278.2201" y2="-386.8131">
		<stop  offset="0" style="stop-color:#00C9FF"/>
		<stop  offset="1" style="stop-color:#3B72DE"/>
	</linearGradient>
	<path fill="url(#SVGID_4_)" d="M215.178,161.363c2.684,0.233,5.048-1.766,5.276-4.451c0.227-2.687-1.766-5.048-4.452-5.276
		c-12.15-1.026-24.063,3.322-32.68,11.938c-7.794,7.793-12.086,18.155-12.086,29.178c0,11.022,4.292,21.384,12.086,29.177
		c8.047,8.046,18.61,12.067,29.178,12.066c10.565-0.001,21.135-4.022,29.178-12.066c8.36-8.36,12.737-19.928,12.007-31.735
		c-0.165-2.69-2.48-4.742-5.172-4.571c-2.69,0.166-4.737,2.482-4.57,5.173c0.558,9.018-2.784,17.849-9.168,24.231
		c-12.281,12.282-32.267,12.282-44.549,0c-5.95-5.949-9.228-13.86-9.228-22.274c0-8.415,3.277-16.325,9.228-22.275
		C196.803,163.898,205.898,160.577,215.178,161.363z"/>
</g>
</svg>
